# xmcd
#
# Track frame offsets: 
#        183
#        14505
#        27650
#        40908
#        69683
#        84495
#        97433
#        109913
#        123713
#        137283
#        152095
#        165828
#        181935
#        196498
#        212288
#        226985
#        242920
#
# Disc length: 3395 seconds
#
# Revision: 0
# Processed by: cddbd v1.4PL0 Copyright (c) Steve Scherf et al.
# Submitted via: ExactAudioCopy v0.90a11
#
DISCID=e90d4111
DTITLE=Bessie Smith - Blue Spirit Blues
DYEAR=1900
DGENRE=
TTITLE0=Thinking-Blues
TTITLE1=I Used To Be Your Sweet Mama
TTITLE2=Standin'  In The Rain
TTITLE3=Empty Bed Blues
TTITLE4=Devil's Gonna Get You
TTITLE5=I'm Wild About That Thing
TTITLE6=You've Got To Give Me Some
TTITLE7=Kitchen Man
TTITLE8=Nobody Knows You When You're Down And Out
TTITLE9=He's Got Me Goin'
TTITLE10=Blue Spirit Blues
TTITLE11=Keep It To Yourself
TTITLE12=Black Mountain Blues
TTITLE13=Do Your Duty
TTITLE14=I'm Down In The Dumps
TTITLE15=Gimme A Pigfoot
TTITLE16=Take Me For A Buggy Ride
EXTD=Bauer Music Production, Geroldswil/Switzerland\n\nJazz Club colle
EXTD=ction
EXTT0=
EXTT1=
EXTT2=
EXTT3=
EXTT4=
EXTT5=
EXTT6=
EXTT7=
EXTT8=
EXTT9=
EXTT10=
EXTT11=
EXTT12=
EXTT13=
EXTT14=
EXTT15=
EXTT16=
PLAYORDER=
